<svg width="22" height="24" viewBox="0 0 22 24" fill="none" xmlns="http://www.w3.org/2000/svg">
<path d="M21.08 7.22744V5.12612C21.08 4.73628 20.7639 4.42024 20.3741 4.42024H17.096C16.7061 4.42024 16.3901 4.73628 16.3901 5.12612V7.22744C16.0301 7.25962 15.7478 7.56174 15.7478 7.93012V11.7258C15.7478 12.5907 16.4515 13.2943 17.3164 13.2943H18.0292V20.8141C18.0292 21.7924 17.2331 22.5882 16.2546 22.5882H8.53833C7.56007 22.5882 6.76421 21.7924 6.76421 20.8141V19.2941H8.26539C8.65523 19.2941 8.97127 18.9781 8.97127 18.5882V16.298H9.72106C10.8887 16.298 11.8387 15.348 11.8387 14.1804V7.77821C11.8387 6.82607 11.2069 6.01887 10.3407 5.75327V3.33271C10.3407 2.94287 10.0246 2.62682 9.6348 2.62682H8.64704V0.705882C8.64704 0.316047 8.33099 0 7.94115 0C7.55132 0 7.23527 0.316047 7.23527 0.705882V2.62682H4.88139V0.705882C4.88139 0.316047 4.56534 0 4.17551 0C3.78567 0 3.46963 0.316047 3.46963 0.705882V2.62682H2.48186C2.09202 2.62682 1.77598 2.94287 1.77598 3.33271V5.75327C0.909672 6.01887 0.277954 6.82602 0.277954 7.77821V14.1804C0.277954 15.348 1.22793 16.298 2.3956 16.298H3.14539V18.5882C3.14539 18.9781 3.46144 19.2941 3.85127 19.2941H5.35245V20.8141C5.35245 22.5708 6.78163 24 8.53833 24H16.2546C18.0115 24 19.4409 22.5708 19.4409 20.8141V13.2943H20.1535C21.0184 13.2943 21.722 12.5907 21.722 11.7258V7.93012C21.722 7.56179 21.4398 7.25976 21.08 7.22744ZM8.92892 4.03859V5.66056H3.18774V4.03859H8.92892ZM1.68967 14.1804V7.77821C1.68967 7.38899 2.00633 7.07233 2.39555 7.07233H9.72106C10.1103 7.07233 10.4269 7.38899 10.4269 7.77821V14.1804C10.4269 14.5696 10.1103 14.8863 9.72106 14.8863C9.42525 14.8863 2.73245 14.8863 2.39555 14.8863C2.00633 14.8863 1.68967 14.5696 1.68967 14.1804ZM4.55715 16.298H7.55951V17.8824H4.55715V16.298ZM19.6682 5.832V7.22424H17.8019V5.832H19.6682ZM20.3103 11.7258C20.3103 11.8122 20.2399 11.8825 20.1535 11.8825C20.0671 11.8825 18.1153 11.8825 17.3164 11.8825C17.2299 11.8825 17.1596 11.8122 17.1596 11.7258V8.636H20.3103V11.7258Z" fill="black"/>
</svg>
